:SAMPLES-PER-SECOND 30
:FULLY-SPECIFIED
:DEGREES
332
root  -15.115 34.2121 -1.129 -125.119 -3.92946 179.441
RightUpLeg  -70.2888 -5.33449 10.8716
RightLeg  13.1191 -0.358738 -0.0591102
RightFoot  11.2689 0.0656146 -0.121328
RightToes  -14.794 -0.0563969 -0.134958
Spine  16.5828 0.734023 2.25733
Spine1  32.5836 1.83134 3.22478
HEad  -16.7613 -7.83502 0.23397
LeftShoulder1  -1.94126e-019 -3.10601e-018 -2.51263e-017
LeftArm  -11.8716 -1.92741 -81.3678
LeftForeArm  13.3122 -30.728 -5.84795
LeftHand  -0.46054 -2.21649 7.23098
RightShoulder  -4.96962e-017 0 -2.36833e-017
RightArm  -18.4914 2.48495 74.5929
RightForeArm  27.882 31.4877 5.21294
RightHand  -0.262723 -3.19186 -13.3366
LeftUpLeg  -71.8683 -6.04005 7.4013
LeftLeg  15.5567 11.326 2.36258
LeftFoot  12.8565 -0.269412 2.63506
LeftToes  -13.1897 1.31424e-006 1.14295e-007
333
root  -15.1052 34.1882 -1.05995 -125.885 -4.10034 179.61
RightUpLeg  -69.5964 -5.19986 10.6636
RightLeg  13.1236 -0.795763 -0.131776
RightFoot  11.4107 0.0743268 -0.204054
RightToes  -14.8461 -0.0571076 -0.135686
Spine  16.5735 0.805848 2.28358
Spine1  32.578 1.95214 3.31931
HEad  -17.0039 -7.93577 0.234315
LeftShoulder1  -1.94126e-019 -3.10601e-018 -2.51263e-017
LeftArm  -11.9249 -1.81782 -81.4181
LeftForeArm  13.4194 -30.4468 -5.77346
LeftHand  -0.463164 -2.32298 7.17828
RightShoulder  -4.96962e-017 0 -2.36833e-017
RightArm  -18.6078 2.3891 74.5864
RightForeArm  28.0945 31.3496 5.16916
RightHand  -0.266122 -3.14702 -13.2781
LeftUpLeg  -71.3985 -5.71289 6.90928
LeftLeg  15.942 10.6599 2.29965
LeftFoot  12.705 -0.258731 2.45955
LeftToes  -13.0203 1.31424e-006 1.14295e-007
334
root  -15.1309 34.1689 -0.984813 -126.637 -4.08473 179.66
RightUpLeg  -68.9346 -5.17868 10.4027
RightLeg  13.0805 -1.03952 -0.171469
RightFoot  11.5545 0.0805119 -0.250211
RightToes  -14.9533 -0.0578868 -0.136887
Spine  16.4763 0.823543 2.25007
Spine1  32.4014 1.98801 3.28393
HEad  -17.1071 -8.06622 0.219973
LeftShoulder1  -1.94126e-019 -3.10601e-018 -2.51263e-017
LeftArm  -11.8599 -1.68555 -81.452
LeftForeArm  13.4616 -30.117 -5.69292
LeftHand  -0.462412 -2.16642 7.304
RightShoulder  -4.96962e-017 0 -2.36833e-017
RightArm  -18.5335 2.26407 74.59
RightForeArm  28.1529 31.1219 5.11351
RightHand  -0.243009 -3.40853 -13.6347
LeftUpLeg  -70.9463 -5.90793 7.01954
LeftLeg  16.2688 10.9574 2.42802
LeftFoot  12.676 -0.263484 2.52647
LeftToes  -12.8806 1.31424e-006 1.14295e-007
335
root  -15.1833 34.1442 -0.930215 -127.717 -3.33546 179.613
RightUpLeg  -67.9432 -4.80494 9.43178
RightLeg  13.0707 -1.32324 -0.218154
RightFoot  11.756 0.0870593 -0.298862
RightToes  -15.3735 -0.0587357 -0.138623
Spine  16.3764 0.85001 1.98184
Spine1  32.194 2.07262 2.86038
HEad  -17.0191 -8.29562 0.0788672
LeftShoulder1  -1.94126e-019 -3.10601e-018 -2.51263e-017
LeftArm  -12.0712 -1.34962 -81.4202
LeftForeArm  13.6411 -29.8045 -5.60931
LeftHand  -0.479881 -2.25843 7.48795
RightShoulder  -4.96962e-017 0 -2.36833e-017
RightArm  -18.4568 2.05744 74.7667
RightForeArm  28.302 30.8949 5.05328
RightHand  -0.232928 -3.49726 -13.6379
LeftUpLeg  -69.9706 -5.95519 6.691
LeftLeg  16.5168 11.5541 2.61049
LeftFoot  12.5344 -0.271375 2.6454
LeftToes  -13.038 1.31424e-006 1.14295e-007
336
root  -15.2088 34.1302 -0.853834 -128.59 -3.08879 179.72
RightUpLeg  -66.9399 -4.40204 8.71623
RightLeg  12.6579 -1.86558 -0.293846
RightFoot  12.1237 0.101472 -0.406134
RightToes  -15.8707 -0.0596553 -0.142821
Spine  16.043 0.892812 1.90214
Spine1  31.5744 2.14208 2.80369
HEad  -16.5947 -8.67188 0.0843505
LeftShoulder1  -1.94126e-019 -3.10601e-018 -2.51263e-017
LeftArm  -11.9415 -0.816712 -81.4615
LeftForeArm  13.7653 -29.5391 -5.54034
LeftHand  -0.471901 -2.21662 7.40429
RightShoulder  -4.96962e-017 0 -2.36833e-017
RightArm  -18.5415 1.47345 74.8507
RightForeArm  28.5373 30.619 4.97749
RightHand  -0.274032 -3.08827 -13.3496
LeftUpLeg  -69.3734 -5.90921 6.55157
LeftLeg  16.8947 11.7072 2.72515
LeftFoot  12.4261 -0.272843 2.66838
LeftToes  -13.3456 1.31424e-006 1.14295e-007
337
root  -15.2543 34.1236 -0.78326 -129.495 -2.83441 179.719
RightUpLeg  -65.9421 -4.44344 8.45545
RightLeg  12.2024 -1.79108 -0.26743
RightFoot  12.4849 0.102923 -0.39221
RightToes  -16.2779 -0.0616961 -0.146532
Spine  15.6636 0.877379 1.79392
Spine1  30.8658 2.10297 2.67973
HEad  -16.4693 -9.06314 0.17201
LeftShoulder1  -1.94126e-019 -3.10601e-018 -2.51263e-017
LeftArm  -11.9579 -0.093834 -81.4142
LeftForeArm  14.0941 -29.9425 -5.62313
LeftHand  -0.473361 -2.29741 7.3543
RightShoulder  -4.96962e-017 0 -2.36833e-017
RightArm  -18.6514 0.966201 75.0376
RightForeArm  28.745 30.2267 4.87746
RightHand  -0.245102 -3.38934 -13.6288
LeftUpLeg  -68.609 -5.9014 6.23811
LeftLeg  17.0385 11.7498 2.76573
LeftFoot  12.4426 -0.274013 2.69154
LeftToes  -13.4725 1.31424e-006 1.14295e-007
338
root  -15.2983 34.1129 -0.70801 -130.482 -2.65839 179.779
RightUpLeg  -64.8396 -4.41874 8.17073
RightLeg  11.7289 -1.8466 -0.26007
RightFoot  12.8269 0.106797 -0.404662
RightToes  -16.7702 -0.0641162 -0.15036
Spine  15.1831 0.883129 1.69518
Spine1  29.9632 2.09905 2.59269
HEad  -16.2377 -9.49904 0.453663
LeftShoulder1  -1.94126e-019 -3.10601e-018 -2.51263e-017
LeftArm  -11.8759 0.7634 -81.3082
LeftForeArm  14.223 -30.3519 -5.71938
LeftHand  -0.474257 -2.28031 7.38304
RightShoulder  -4.96962e-017 0 -2.36833e-017
RightArm  -18.8624 0.231067 75.2858
RightForeArm  29.0575 29.7464 4.75297
RightHand  -0.250729 -3.34226 -13.6436
LeftUpLeg  -67.7357 -5.72505 5.77073
LeftLeg  17.118 11.5281 2.73105
LeftFoot  12.4206 -0.270421 2.64626
LeftToes  -13.2386 1.31424e-006 1.14295e-007
339
root  -15.3498 34.1043 -0.625203 -131.41 -2.60736 179.831
RightUpLeg  -63.821 -4.46527 7.95185
RightLeg  11.2878 -1.92342 -0.25576
RightFoot  13.1428 0.111657 -0.420334
RightToes  -17.3305 -0.0667862 -0.15502
Spine  14.5638 0.856515 1.63378
Spine1  28.7925 2.01395 2.58982
HEad  -15.9751 -9.83814 0.703139
LeftShoulder1  -1.94126e-019 -3.10601e-018 -2.51263e-017
LeftArm  -11.876 1.72854 -81.2548
LeftForeArm  14.4063 -30.6805 -5.79525
LeftHand  -0.481025 -2.31747 7.45204
RightShoulder  -4.96962e-017 0 -2.36833e-017
RightArm  -19.0069 -0.577441 75.4889
RightForeArm  29.4568 29.1154 4.59189
RightHand  -0.25574 -3.30291 -13.673
LeftUpLeg  -66.9367 -5.62661 5.38331
LeftLeg  17.1585 11.3023 2.68667
LeftFoot  12.4148 -0.265638 2.60349
LeftToes  -13.2747 1.31424e-006 1.14295e-007
340
root  -15.3921 34.0841 -0.59539 -132.808 -2.32109 179.944
RightUpLeg  -62.3202 -4.15996 7.33152
RightLeg  11.0336 -2.32866 -0.299231
RightFoot  13.2999 0.122973 -0.503934
RightToes  -17.9006 -0.0700671 -0.159732
Spine  13.9693 0.863627 1.52105
Spine1  27.6509 2.00004 2.50583
HEad  -15.7679 -9.95245 0.781215
LeftShoulder1  -1.94126e-019 -3.10601e-018 -2.51263e-017
LeftArm  -11.8846 2.80455 -81.1706
LeftForeArm  14.588 -30.8177 -5.82318
LeftHand  -0.483819 -2.13608 7.66148
RightShoulder  -4.96962e-017 0 -2.36833e-017
RightArm  -18.9627 -1.55967 75.7035
RightForeArm  29.9915 28.6033 4.45141
RightHand  -0.252482 -3.33234 -13.6795
LeftUpLeg  -65.681 -5.1928 4.62907
LeftLeg  17.5151 10.8452 2.65024
LeftFoot  12.0135 -0.239512 2.43747
LeftToes  -13.4581 1.31424e-006 1.14295e-007
341
root  -15.4575 34.0657 -0.596569 -134.399 -2.18987 179.954
RightUpLeg  -60.6389 -4.2792 6.96578
RightLeg  10.8515 -2.38643 -0.298942
RightFoot  13.3215 0.126008 -0.507518
RightToes  -18.7666 -0.0746903 -0.166832
Spine  13.3276 0.816118 1.4507
Spine1  26.4156 1.87305 2.48303
HEad  -15.5773 -10.0872 0.829588
LeftShoulder1  -1.94126e-019 -3.10601e-018 -2.51263e-017
LeftArm  -12.0317 3.76678 -81.2098
LeftForeArm  15.0144 -30.7266 -5.78314
LeftHand  -0.487044 -2.25495 7.59987
RightShoulder  -4.96962e-017 0 -2.36833e-017
RightArm  -19.1657 -2.51672 75.8939
RightForeArm  30.8069 27.8806 4.25244
RightHand  -0.285364 -2.96534 -13.2333
LeftUpLeg  -64.3352 -5.34089 4.39651
LeftLeg  18.0697 10.9159 2.77863
LeftFoot  11.6393 -0.227445 2.39281
LeftToes  -13.9516 1.31424e-006 1.14295e-007
342
root  -15.4883 34.0548 -0.643504 -136.316 -1.85875 -179.748
RightUpLeg  -58.5274 -3.94933 6.6139
RightLeg  10.6603 -2.63186 -0.320805
RightFoot  13.3423 0.130603 -0.553365
RightToes  -19.382 -0.0777666 -0.171835
Spine  12.6494 0.875777 1.38794
Spine1  25.1044 1.94797 2.51307
HEad  -15.4716 -10.0908 0.758243
LeftShoulder1  -1.94126e-019 -3.10601e-018 -2.51263e-017
LeftArm  -12.1072 4.82685 -81.2709
LeftForeArm  15.41 -30.5671 -5.72763
LeftHand  -0.487587 -2.33473 7.56626
RightShoulder  -4.96962e-017 0 -2.36833e-017
RightArm  -19.3593 -3.59681 76.026
RightForeArm  31.3567 27.183 4.07554
RightHand  -0.286769 -2.92353 -13.0791
LeftUpLeg  -62.6644 -4.83263 3.91277
LeftLeg  18.899 10.5064 2.83691
LeftFoot  10.89 -0.192574 2.18161
LeftToes  -14.5505 1.31424e-006 1.14295e-007
